<svg width="13" height="13" viewBox="0 0 13 13" fill="none" xmlns="http://www.w3.org/2000/svg">
<path d="M9.75 4.33337C10.6475 4.33337 11.375 3.60584 11.375 2.70837C11.375 1.81091 10.6475 1.08337 9.75 1.08337C8.85254 1.08337 8.125 1.81091 8.125 2.70837C8.125 3.60584 8.85254 4.33337 9.75 4.33337Z" stroke="black" stroke-width="1.5" stroke-linecap="round" stroke-linejoin="round"/>
<path d="M3.25 8.125C4.14746 8.125 4.875 7.39746 4.875 6.5C4.875 5.60254 4.14746 4.875 3.25 4.875C2.35254 4.875 1.625 5.60254 1.625 6.5C1.625 7.39746 2.35254 8.125 3.25 8.125Z" stroke="black" stroke-width="1.5" stroke-linecap="round" stroke-linejoin="round"/>
<path d="M9.75 11.9166C10.6475 11.9166 11.375 11.1891 11.375 10.2916C11.375 9.39416 10.6475 8.66663 9.75 8.66663C8.85254 8.66663 8.125 9.39416 8.125 10.2916C8.125 11.1891 8.85254 11.9166 9.75 11.9166Z" stroke="black" stroke-width="1.5" stroke-linecap="round" stroke-linejoin="round"/>
<path d="M4.65292 7.31787L8.35251 9.4737" stroke="black" stroke-width="1.5" stroke-linecap="round" stroke-linejoin="round"/>
<path d="M8.34709 3.52625L4.65292 5.68208" stroke="black" stroke-width="1.5" stroke-linecap="round" stroke-linejoin="round"/>
</svg>
